<svg width="214" height="64" viewBox="0 0 214 64" fill="none" xmlns="http://www.w3.org/2000/svg">
<circle cx="199.5" cy="14.5" r="14.5" transform="rotate(-90 199.5 14.5)" fill="#2C2B2B"/>
<path d="M162.5 0.999999C169.956 0.999999 176 7.04415 176 14.5C176 21.9558 169.956 28 162.5 28C155.044 28 149 21.9558 149 14.5C149 7.04416 155.044 1 162.5 0.999999Z" fill="#EDEDED" stroke="black" stroke-width="2"/>
<circle cx="125.5" cy="14.5" r="14.5" transform="rotate(90 125.5 14.5)" fill="#3F7B5B"/>
<circle cx="88.5" cy="14.5" r="14.5" transform="rotate(90 88.5 14.5)" fill="#F7C7C7"/>
<circle cx="51.5" cy="14.5" r="14.5" transform="rotate(90 51.5 14.5)" fill="#2A7B8D"/>
<circle cx="14.5" cy="14.5" r="14.5" transform="rotate(90 14.5 14.5)" fill="#F55050"/>
<circle cx="199.5" cy="49.5" r="14.5" transform="rotate(-90 199.5 49.5)" fill="#6F6D6D"/>
<circle cx="162.5" cy="49.5" r="13.5" transform="rotate(-90 162.5 49.5)" fill="#E3E2E2" stroke="black" stroke-width="2"/>
<circle cx="125.5" cy="49.5" r="14.5" transform="rotate(90 125.5 49.5)" fill="#EDD19C"/>
<circle cx="88.5" cy="49.5" r="14.5" transform="rotate(90 88.5 49.5)" fill="#7BA1C5"/>
<circle cx="51.5" cy="49.5" r="14.5" transform="rotate(90 51.5 49.5)" fill="#55715D"/>
</svg>
